{"title":"Notting.Hill.1999.720p.BRRiP.x264.ogg.mkv-anoXmous","uid":6651017,"size":731392958,"categoryP":"video","categoryS":"hd___movies","magnet":"?xt=urn:btih:ef155cd07d3cca06f96c576c74960626198969bb&amp;dn=Notting.Hill.1999.720p.BRRiP.x264.ogg.mkv-anoXmous&amp;tr=udp%3A%2F%2Ftracker.openbittorrent.com%3A80&amp;tr=udp%3A%2F%2Fopen.demonii.com%3A1337&amp;tr=udp%3A%2F%2Ftracker.coppersurfer.tk%3A6969&amp;tr=udp%3A%2F%2Fexodus.desync.com%3A6969","seeders":0,"leechers":0,"uploader":"anoXmous","files":-1,"time":1315148455,"description":"Notting.Hill.1999.720p.BRRiP.x264.ogg.mkv-anoXmous\n\nFormat                           : Matroska\nFormat version                   : Version 2\nFile size                        : 698 MiB\nDuration                         : 2h 3mn\nOverall bit rate                 : 787 Kbps\nWriting application              : mkvmerge v4.9.1 ('Ich will') built on Jul 11 2011 23:53:15\nWriting library                  : libebml v1.2.1 + libmatroska v1.1.1\n\nVideo\nID                               : 1\nFormat                           : AVC\nFormat/Info                      : Advanced Video Codec\nFormat profile                   : &lt;a class=&quot;__cf_email__&quot; href=&quot;/cdn-cgi/l/email-protection&quot; data-cfemail=&quot;024a6b656a424e362c33&quot;&gt;[email&amp;#160;protected]&lt;/a&gt;&lt;script data-cfhash='f9e31' type=&quot;text/javascript&quot;&gt;\n/* &lt;![CDATA[ */!function(){try{var t=&quot;currentScript&quot;in document?document.currentScript:function(){for(var t=document.getElementsByTagName(&quot;script&quot;),e=t.length;e--;)if(t[e].getAttribute(&quot;data-cfhash&quot;))return t[e]}();if(t&amp;&amp;t.previousSibling){var e,r,n,i,c=t.previousSibling,a=c.getAttribute(&quot;data-cfemail&quot;);if(a){for(e=&quot;&quot;,r=parseInt(a.substr(0,2),16),n=2;a.length-n;n+=2)i=parseInt(a.substr(n,2),16)^r,e+=String.fromCharCode(i);e=document.createTextNode(e),c.parentNode.replaceChild(e,c)}t.parentNode.removeChild(t);}}catch(u){}}()/* ]]&gt; */&lt;/script&gt;\nFormat settings, CABAC           : Yes\nFormat settings, ReFrames        : 4 frames\nMuxing mode                      : Header stripping\nCodec ID                         : V_MPEG4/ISO/AVC\nDuration                         : 2h 3mn\nBit rate                         : 728 Kbps\nWidth                            : 1 280 pixels\nHeight                           : 544 pixels\nDisplay aspect ratio             : 2.35:1\nFrame rate                       : 23.976 fps\nColor space                      : YUV\nChroma subsampling               : 4:2:0\nBit depth                        : 8 bits\nScan type                        : Progressive\nBits/(Pixel*Frame)               : 0.044\nStream size                      : 627 MiB (90%)\nWriting library                  : x264 core 116 r2074 2641b9e\nEncoding settings                : cabac=1 / ref=3 / deblock=1:0:0 / analyse=0x3:0x113 / me=hex / subme=7 / psy=1 / psy_rd=1.00:0.00 / mixed_ref=1 / me_range=16 / chroma_me=1 / trellis=1 / 8x8dct=1 / cqm=0 / deadzone=21,11 / fast_pskip=1 / chroma_qp_offset=-2 / threads=3 / sliced_threads=0 / nr=0 / decimate=1 / interlaced=0 / bluray_compat=0 / constrained_intra=0 / bframes=3 / b_pyramid=2 / b_adapt=1 / b_bias=0 / direct=1 / weightb=1 / open_gop=0 / weightp=2 / keyint=250 / keyint_min=23 / scenecut=40 / intra_refresh=0 / rc_lookahead=40 / rc=2pass / mbtree=1 / bitrate=728 / ratetol=1.0 / qcomp=0.60 / qpmin=0 / qpmax=69 / qpstep=4 / cplxblur=20.0 / qblur=0.5 / ip_ratio=1.40 / aq=1:1.00\n\nAudio\nID                               : 2\nFormat                           : Vorbis\nFormat settings, Floor           : 1\nCodec ID                         : A_VORBIS\nDuration                         : 2h 3mn\nBit rate mode                    : Variable\nBit rate                         : 64.0 Kbps\nChannel(s)                       : 2 channels\nSampling rate                    : 48.0 KHz\nCompression mode                 : Lossy\nStream size                      : 56.7 MiB (8%)\nWriting library                  : aoTuV 20110424 (UTC 2011-04-24)\nLanguage                         : English\n\nText #1\nID                               : 3\nFormat                           : UTF-8\nCodec ID                         : S_TEXT/UTF8\nCodec ID/Info                    : UTF-8 Plain Text\nLanguage                         : English\n\nText #2\nID                               : 4\nFormat                           : UTF-8\nCodec ID                         : S_TEXT/UTF8\nCodec ID/Info                    : UTF-8 Plain Text\nLanguage                         : Danish\n\nText #3\nID                               : 5\nFormat                           : UTF-8\nCodec ID                         : S_TEXT/UTF8\nCodec ID/Info                    : UTF-8 Plain Text\nLanguage                         : Finnish\n\nText #4\nID                               : 6\nFormat                           : UTF-8\nCodec ID                         : S_TEXT/UTF8\nCodec ID/Info                    : UTF-8 Plain Text\nLanguage                         : Icelandic\n\nText #5\nID                               : 7\nFormat                           : UTF-8\nCodec ID                         : S_TEXT/UTF8\nCodec ID/Info                    : UTF-8 Plain Text\nLanguage                         : Norwegian\n\nText #6\nID                               : 8\nFormat                           : UTF-8\nCodec ID                         : S_TEXT/UTF8\nCodec ID/Info                    : UTF-8 Plain Text\nLanguage                         : Swedish\n &lt;a href=&quot;\nhttp://www.imdb.com/title/tt0125439/&quot; rel=&quot;nofollow&quot; target=&quot;_NEW&quot;&gt;\nhttp://www.imdb.com/title/tt0125439/&lt;/a&gt;","torrent":{"xt":"urn:btih:ef155cd07d3cca06f96c576c74960626198969bb","amp;dn":"Notting.Hill.1999.720p.BRRiP.x264.ogg.mkv-anoXmous","amp;tr":["udp%3A%2F%2Ftracker.openbittorrent.com%3A80","udp%3A%2F%2Fopen.demonii.com%3A1337","udp%3A%2F%2Ftracker.coppersurfer.tk%3A6969","udp%3A%2F%2Fexodus.desync.com%3A6969"],"infoHash":"ef155cd07d3cca06f96c576c74960626198969bb","infoHashBuffer":{"type":"Buffer","data":[239,21,92,208,125,60,202,6,249,108,87,108,116,150,6,38,25,137,105,187]},"announce":[],"urlList":[]}}